<svg xmlns="http://www.w3.org/2000/svg" viewBox="0 0 64 64" role="img" aria-label="Vindem Labs">
  <defs>
    <linearGradient id="tile" x1="7%" y1="6%" x2="93%" y2="94%">
      <stop offset="0%" stop-color="#fff4df" />
      <stop offset="48%" stop-color="#ccefe4" />
      <stop offset="100%" stop-color="#68d8d1" />
    </linearGradient>
    <linearGradient id="mark" x1="18%" y1="12%" x2="82%" y2="88%">
      <stop offset="0%" stop-color="#0aa6a6" />
      <stop offset="100%" stop-color="#15313a" />
    </linearGradient>
  </defs>
  <rect x="3" y="3" width="58" height="58" rx="17" fill="url(#tile)" />
  <path d="M13 18C20 10 34 8 46 15C55 20 59 30 55 42C51 54 39 59 27 55C15 51 8 40 10 29C11 24 11 21 13 18Z" fill="#ffffff" opacity="0.58" />
  <path d="M15 18H23L31.2 43.5L40.2 18H48L35.7 50H26.5L15 18Z" fill="url(#mark)" />
  <path d="M41.2 18H49V42.7H55V50H41.2V18Z" fill="#15313a" opacity="0.92" />
  <path d="M21.4 32.5C28.5 27.2 36.8 27.2 46.4 32.6" fill="none" stroke="#fff4df" stroke-width="4.6" stroke-linecap="round" />
  <circle cx="47.8" cy="22.2" r="3.4" fill="#ffb86b" />
</svg>
