<svg xmlns="http://www.w3.org/2000/svg" viewBox="0 0 64 64" role="img" aria-label="Vindem Labs">
  <defs>
    <linearGradient id="g" x1="0%" x2="100%" y1="0%" y2="100%">
      <stop offset="0%" stop-color="#4ccfc5" />
      <stop offset="100%" stop-color="#8be7da" />
    </linearGradient>
  </defs>
  <rect width="64" height="64" rx="18" fill="url(#g)" />
  <path
    d="M22 16c7.6 0 16 7.7 16 15.8 0 8.2-8.4 16.2-16 16.2v-5.9c4.8-.4 9.8-5.1 9.8-10.4 0-5.2-5-9.8-9.8-10.1V16Zm8 0c7.5 0 16 7.7 16 15.8 0 8.2-8.5 16.2-16 16.2v-5.9c4.8-.4 9.8-5.1 9.8-10.4 0-5.2-5-9.8-9.8-10.1V16Z"
    fill="#ffffff"
    fill-opacity="0.9"
  />
</svg>
