<svg xmlns="http://www.w3.org/2000/svg" viewBox="0 0 1200 630">
  <defs>
    <linearGradient id="bg" x1="0%" y1="0%" x2="100%" y2="100%">
      <stop offset="0%" stop-color="#fffefd" />
      <stop offset="50%" stop-color="#f7fbf6" />
      <stop offset="100%" stop-color="#d7f1e9" />
    </linearGradient>
    <linearGradient id="tile" x1="7%" y1="6%" x2="93%" y2="94%">
      <stop offset="0%" stop-color="#fff4df" />
      <stop offset="48%" stop-color="#ccefe4" />
      <stop offset="100%" stop-color="#68d8d1" />
    </linearGradient>
    <linearGradient id="mark" x1="18%" y1="12%" x2="82%" y2="88%">
      <stop offset="0%" stop-color="#0aa6a6" />
      <stop offset="100%" stop-color="#15313a" />
    </linearGradient>
  </defs>
  <rect width="1200" height="630" fill="url(#bg)" />
  <circle cx="1012" cy="116" r="184" fill="#bfeade" opacity="0.58" />
  <circle cx="1060" cy="142" r="82" fill="#ffb86b" opacity="0.18" />
  <path d="M0 510C142 480 282 493 420 548C532 592 650 586 768 538V630H0Z" fill="#68d8d1" opacity="0.24" />
  <path d="M770 0H1200V630H890C792 500 758 358 780 204C792 123 806 58 770 0Z" fill="#fff4df" opacity="0.62" />

  <rect x="86" y="82" width="118" height="118" rx="32" fill="url(#tile)" />
  <path d="M105 113C119 96 152 93 178 111C197 124 202 153 184 176C166 198 127 199 106 179C88 162 88 132 105 113Z" fill="#ffffff" opacity="0.58" />
  <path d="M111 112H126L141.5 169L158.5 112H173L150.2 176H133.8L111 112Z" fill="url(#mark)" />
  <path d="M160 112H175V163H188V176H160V112Z" fill="#15313a" opacity="0.92" />
  <path d="M122 144C137 132 154 132 174 144" fill="none" stroke="#fff4df" stroke-width="8" stroke-linecap="round" />
  <circle cx="174" cy="121" r="6.2" fill="#ffb86b" />

  <text x="86" y="294" fill="#15313a" font-family="Sora, Arial, sans-serif" font-size="78" font-weight="700">Vindem Labs</text>
  <text x="86" y="366" fill="#557178" font-family="Sora, Arial, sans-serif" font-size="31">Digital products, business software, publishing platforms, and connected systems.</text>
  <text x="86" y="456" fill="#0b5f68" font-family="Sora, Arial, sans-serif" font-size="23" font-weight="700">PropTech | AI Education | Property Operations | IoT Integrations</text>
</svg>
