<svg xmlns="http://www.w3.org/2000/svg" viewBox="0 0 1200 630">
  <defs>
    <linearGradient id="bg" x1="0%" y1="0%" x2="100%" y2="100%">
      <stop offset="0%" stop-color="#fffefd" />
      <stop offset="47%" stop-color="#f5fbf8" />
      <stop offset="100%" stop-color="#d9f4f1" />
    </linearGradient>
    <linearGradient id="tile" x1="8%" y1="6%" x2="92%" y2="94%">
      <stop offset="0%" stop-color="#fff6e8" />
      <stop offset="55%" stop-color="#d7f8f0" />
      <stop offset="100%" stop-color="#6ddbd5" />
    </linearGradient>
    <linearGradient id="ink" x1="16%" y1="12%" x2="84%" y2="88%">
      <stop offset="0%" stop-color="#00a7b3" />
      <stop offset="100%" stop-color="#11343b" />
    </linearGradient>
    <filter id="lift" x="-16%" y="-16%" width="132%" height="132%">
      <feDropShadow dx="0" dy="8" stdDeviation="7" flood-color="#07545d" flood-opacity="0.2" />
    </filter>
  </defs>
  <rect width="1200" height="630" fill="url(#bg)" />
  <circle cx="1018" cy="108" r="190" fill="#beece7" opacity="0.68" />
  <circle cx="1058" cy="145" r="86" fill="#f4976c" opacity="0.2" />
  <path d="M0 505C144 468 292 493 428 546C546 592 662 588 780 535C900 481 1036 472 1200 518V630H0Z" fill="#62d4d0" opacity="0.24" />
  <path d="M762 0H1200V630H888C792 508 754 364 779 212C793 128 805 60 762 0Z" fill="#fff2dc" opacity="0.66" />
  <path d="M970 390C1016 348 1084 348 1138 390" fill="none" stroke="#00a7b3" stroke-width="22" stroke-linecap="round" opacity="0.18" />

  <rect x="86" y="78" width="124" height="124" rx="38" fill="url(#tile)" />
  <path d="M101 111C118 91 153 89 180 106C199 119 206 143 195 165C184 188 156 199 127 189C104 181 90 159 92 135C93 125 94 117 101 111Z" fill="#ffffff" opacity="0.64" />
  <g filter="url(#lift)" fill="none" stroke="url(#ink)" stroke-linecap="round" stroke-linejoin="round">
    <path d="M110 108L141 175L168 108" stroke-width="14" />
    <path d="M175 108V162C175 171 181 177 190 177H203" stroke-width="14" />
  </g>
  <path d="M126 186H190" fill="none" stroke="#f4976c" stroke-width="8" stroke-linecap="round" opacity="0.95" />
  <path d="M130 183.5H186" fill="none" stroke="#fff6e8" stroke-width="2.4" stroke-linecap="round" opacity="0.62" />

  <text x="86" y="302" fill="#133138" font-family="Sora, Avenir Next, Segoe UI, sans-serif" font-size="78" font-weight="800">Vindem Labs</text>
  <text x="86" y="374" fill="#55747b" font-family="Sora, Avenir Next, Segoe UI, sans-serif" font-size="31">Web, mobile, software, and connected digital platforms.</text>
  <text x="86" y="464" fill="#07545d" font-family="Sora, Avenir Next, Segoe UI, sans-serif" font-size="23" font-weight="800">PropTech | AI Education | Property Operations | IoT Integrations</text>
</svg>
