<svg xmlns="http://www.w3.org/2000/svg" viewBox="0 0 1200 630">
  <defs>
    <linearGradient id="bg" x1="0%" y1="0%" x2="100%" y2="100%">
      <stop offset="0%" stop-color="#fffefd" />
      <stop offset="47%" stop-color="#f5fbf8" />
      <stop offset="100%" stop-color="#d9f4f1" />
    </linearGradient>
    <linearGradient id="tile" x1="8%" y1="4%" x2="92%" y2="96%">
      <stop offset="0%" stop-color="#fff2dc" />
      <stop offset="46%" stop-color="#dff8ef" />
      <stop offset="100%" stop-color="#62d4d0" />
    </linearGradient>
    <linearGradient id="ribbon" x1="14%" y1="8%" x2="86%" y2="92%">
      <stop offset="0%" stop-color="#00a7b3" />
      <stop offset="100%" stop-color="#07545d" />
    </linearGradient>
    <filter id="lift" x="-16%" y="-16%" width="132%" height="132%">
      <feDropShadow dx="0" dy="8" stdDeviation="7" flood-color="#07545d" flood-opacity="0.22" />
    </filter>
  </defs>
  <rect width="1200" height="630" fill="url(#bg)" />
  <circle cx="1018" cy="108" r="190" fill="#beece7" opacity="0.68" />
  <circle cx="1058" cy="145" r="86" fill="#f4976c" opacity="0.2" />
  <path d="M0 505C144 468 292 493 428 546C546 592 662 588 780 535C900 481 1036 472 1200 518V630H0Z" fill="#62d4d0" opacity="0.24" />
  <path d="M762 0H1200V630H888C792 508 754 364 779 212C793 128 805 60 762 0Z" fill="#fff2dc" opacity="0.66" />
  <path d="M970 390C1016 348 1084 348 1138 390" fill="none" stroke="#00a7b3" stroke-width="22" stroke-linecap="round" opacity="0.18" />

  <rect x="86" y="78" width="124" height="124" rx="36" fill="url(#tile)" />
  <path d="M102 160C120 173 144 178 168 169C190 161 203 140 198 119C195 102 182 88 164 84C188 94 200 116 192 139C179 176 137 184 102 160Z" fill="#ffffff" opacity="0.62" />
  <g filter="url(#lift)">
    <path d="M110 109H127L145.5 166L164 109H181L155 176H137L110 109Z" fill="url(#ribbon)" />
    <path d="M164 109H181V162H193V176H164V109Z" fill="#133138" />
  </g>
  <path d="M126 141C141 131 158 131 174 141" fill="none" stroke="#fff2dc" stroke-width="8" stroke-linecap="round" />
  <circle cx="176" cy="116" r="7" fill="#f4976c" />

  <text x="86" y="302" fill="#133138" font-family="Sora, Avenir Next, Segoe UI, sans-serif" font-size="78" font-weight="800">Vindem Labs</text>
  <text x="86" y="374" fill="#55747b" font-family="Sora, Avenir Next, Segoe UI, sans-serif" font-size="31">Web, mobile, software, and connected digital platforms.</text>
  <text x="86" y="464" fill="#07545d" font-family="Sora, Avenir Next, Segoe UI, sans-serif" font-size="23" font-weight="800">PropTech | AI Education | Property Operations | IoT Integrations</text>
</svg>
