<svg xmlns="http://www.w3.org/2000/svg" viewBox="0 0 1200 630">
  <defs>
    <linearGradient id="bg" x1="0%" x2="100%" y1="0%" y2="100%">
      <stop offset="0%" stop-color="#f8fffe" />
      <stop offset="100%" stop-color="#dff8f4" />
    </linearGradient>
    <linearGradient id="brand" x1="0%" x2="100%" y1="0%" y2="100%">
      <stop offset="0%" stop-color="#4ccfc5" />
      <stop offset="100%" stop-color="#8be7da" />
    </linearGradient>
  </defs>
  <rect width="1200" height="630" fill="url(#bg)" />
  <circle cx="1040" cy="120" r="170" fill="#c8f5ef" opacity="0.7" />
  <circle cx="180" cy="120" r="120" fill="#e8fbf8" />
  <rect x="86" y="88" width="96" height="96" rx="28" fill="url(#brand)" />
  <path
    d="M116 112c17 0 35 17 35 35s-18 36-35 36v-13c10-1 22-12 22-23s-12-21-22-22v-13Zm18 0c17 0 35 17 35 35s-18 36-35 36v-13c10-1 22-12 22-23s-12-21-22-22v-13Z"
    fill="#fff"
    fill-opacity="0.92"
  />
  <text x="86" y="272" fill="#16333a" font-family="Sora, Arial, sans-serif" font-size="74" font-weight="700">
    Vindem Labs
  </text>
  <text x="86" y="350" fill="#53717a" font-family="Sora, Arial, sans-serif" font-size="30">
    Consumer apps, enterprise software, digital media, and intelligent systems.
  </text>
  <text x="86" y="440" fill="#1d9ea7" font-family="Sora, Arial, sans-serif" font-size="22" font-weight="700">
    PropTech  •  AI Education  •  Property Operations  •  IoT Integrations
  </text>
</svg>
